HIERARCHY
ROOT Hips
{
    OFFSET 0.000000 0.000000 0.000000
    CHANNELS 6 Xposition Yposition Zposition Zrotation Xrotation Yrotation
    JOINT Spine
    {
        OFFSET -0.000000 14.517291 0.000000
        CHANNELS 3 Zrotation Xrotation Yrotation
        JOINT Spine1
        {
            OFFSET -0.000000 37.558300 0.000000
            CHANNELS 3 Zrotation Xrotation Yrotation
            JOINT Neck
            {
                OFFSET -0.000000 37.404057 3.400369
                CHANNELS 3 Zrotation Xrotation Yrotation
                JOINT Head
                {
                    OFFSET -0.000000 24.785618 -3.540803
                    CHANNELS 3 Zrotation Xrotation Yrotation
                    End Site
                    {
                        OFFSET -0.000000 35.408028 0.000000
                    }
                }
            }
            JOINT LeftShoulder
            {
                OFFSET 6.992933 33.973492 -0.192664
                CHANNELS 3 Zrotation Xrotation Yrotation
                JOINT LeftArm
                {
                    OFFSET 21.527611 0.000000 0.000000
                    CHANNELS 3 Zrotation Xrotation Yrotation
                    JOINT LeftForeArm
                    {
                        OFFSET 56.353916 0.000000 0.000000
                        CHANNELS 3 Zrotation Xrotation Yrotation
                        JOINT LeftHand
                        {
                            OFFSET 47.774071 0.000000 0.000000
                            CHANNELS 3 Zrotation Xrotation Yrotation
                            End Site
                            {
                                OFFSET 26.556021 0.000000 0.000000
                            }
                        }
                    }
                }
            }
            JOINT RightShoulder
            {
                OFFSET -7.065357 33.973492 -0.192664
                CHANNELS 3 Zrotation Xrotation Yrotation
                JOINT RightArm
                {
                    OFFSET -21.527611 0.000000 0.000000
                    CHANNELS 3 Zrotation Xrotation Yrotation
                    JOINT RightForeArm
                    {
                        OFFSET -56.353916 0.000000 0.000000
                        CHANNELS 3 Zrotation Xrotation Yrotation
                        JOINT RightHand
                        {
                            OFFSET -47.774071 0.000000 0.000000
                            CHANNELS 3 Zrotation Xrotation Yrotation
                            End Site
                            {
                                OFFSET -26.556021 0.000000 0.000000
                            }
                        }
                    }
                }
            }
        }
    }
    JOINT LeftUpLeg
    {
        OFFSET 17.704014 0.000000 0.000000
        CHANNELS 3 Zrotation Xrotation Yrotation
        JOINT LeftLeg
        {
            OFFSET -0.000000 -81.181816 0.000000
            CHANNELS 3 Zrotation Xrotation Yrotation
            JOINT LeftFoot
            {
                OFFSET -0.000000 -62.821102 0.000000
                CHANNELS 3 Zrotation Xrotation Yrotation
                JOINT LeftToeBase
                {
                    OFFSET -0.000000 -11.507608 26.556021
                    CHANNELS 3 Zrotation Xrotation Yrotation
                    End Site
                    {
                        OFFSET -0.000000 0.000000 7.081605
                    }
                }
            }
        }
    }
    JOINT RightUpLeg
    {
        OFFSET -17.704014 0.000000 0.000000
        CHANNELS 3 Zrotation Xrotation Yrotation
        JOINT RightLeg
        {
            OFFSET -0.000000 -81.181816 0.000000
            CHANNELS 3 Zrotation Xrotation Yrotation
            JOINT RightFoot
            {
                OFFSET -0.000000 -62.821102 0.000000
                CHANNELS 3 Zrotation Xrotation Yrotation
                JOINT RightToeBase
                {
                    OFFSET -0.000000 -11.507608 26.556021
                    CHANNELS 3 Zrotation Xrotation Yrotation
                    End Site
                    {
                        OFFSET -0.000000 0.000000 7.081605
                    }
                }
            }
        }
    }
}
MOTION
Frames:    13
Frame Time:    0.008333
-12.669450    152.401596    -97.460007    1.764908    -6.182848    46.545177    -2.944902    -0.377592    -1.422760    -0.584461    1.965073    -0.462292    -1.282205    4.594346    -18.879877    15.719831    2.261714    -17.673538    3.000956    9.908381    -14.408203    -25.357124    23.613674    -44.525410    -12.580835    -11.815092    -78.501801    -6.604055    -20.947296    -14.123757    2.279967    12.309769    -6.948470    36.623226    18.015718    42.536575    -12.997916    -0.003613    33.407871    -27.363539    -3.114159    28.257706    19.019772    -2.337822    -4.635032    -18.738430    40.286064    -20.460598    7.186133    -30.952007    50.260117    0.000000    0.000000    0.000000    -23.289938    -15.367392    -25.387701    10.303161    30.139111    -18.980135    7.454813    6.689784    -7.735168    0.000000    0.000000    0.000000    
-12.670551    152.402603    -97.451904    1.779803    -6.189462    46.558113    -2.947706    -0.365750    -1.435805    -0.584813    1.966295    -0.466761    -1.281914    4.585617    -18.872784    15.723888    2.270905    -17.666796    3.013139    9.879864    -14.430274    -25.449615    23.423096    -44.791725    -12.100608    -12.576998    -79.664925    -6.400876    -21.530550    -13.908105    2.286615    12.316965    -6.957271    36.620445    18.033049    42.539448    -13.003192    -0.023297    33.407764    -27.351486    -3.120125    28.223534    19.012777    -2.323094    -4.630253    -18.714706    40.286762    -20.492737    7.197047    -30.936581    50.260513    0.000000    0.000000    0.000000    -23.294905    -15.348430    -25.373636    10.312202    30.145653    -18.979731    7.475982    6.670699    -7.761790    0.000000    0.000000    0.000000    
-12.674278    152.403244    -97.446953    1.789566    -6.191680    46.566624    -2.935456    -0.355913    -1.445690    -0.607882    1.957529    -0.469868    -1.289464    4.601154    -18.873642    15.762074    2.272215    -17.662743    3.028351    9.858156    -14.435976    -25.511183    23.256321    -45.067963    -11.573383    -13.378628    -80.843704    -6.669257    -22.048580    -13.736865    2.299985    12.313581    -6.953280    36.623390    18.047115    42.519424    -13.001544    -0.025990    33.412540    -27.367384    -3.125945    28.219671    19.008587    -2.316499    -4.632871    -18.696709    40.289825    -20.531776    7.208519    -30.927387    50.275238    0.000000    0.000000    0.000000    -23.300240    -15.345636    -25.371708    10.311442    30.160761    -19.000252    7.475589    6.669113    -7.748109    0.000000    0.000000    0.000000    
-12.677172    152.403091    -97.437378    1.806319    -6.201690    46.579166    -2.930919    -0.336261    -1.453644    -0.622265    1.950062    -0.472446    -1.272792    4.607404    -18.872463    15.763806    2.265012    -17.662203    3.043286    9.825754    -14.456039    -25.598494    23.084263    -45.363041    -11.027861    -14.192461    -81.944122    -6.959276    -22.534788    -13.590619    2.312311    12.319197    -6.954280    36.631969    18.034447    42.564224    -13.563938    0.689113    32.399170    -27.477577    -3.075340    30.790895    19.006176    -2.296453    -4.644695    -18.688501    40.279526    -20.529921    7.195487    -30.930271    50.264458    0.000000    0.000000    0.000000    -23.304974    -15.328592    -25.342520    10.330092    30.168947    -19.050869    7.483307    6.665308    -7.740745    0.000000    0.000000    0.000000    
-12.679812    152.400787    -97.431793    1.818388    -6.198735    46.594906    -2.928416    -0.330604    -1.466501    -0.639590    1.948495    -0.476464    -1.279698    4.585227    -18.872639    15.783043    2.308327    -17.665092    3.060654    9.784716    -14.468195    -25.697838    22.903967    -45.668514    -10.336604    -15.009830    -82.955765    -7.249142    -22.873573    -13.528310    2.317180    12.334946    -6.963914    36.640675    18.030312    42.577736    -13.559182    0.702599    32.391159    -27.505770    -3.075810    30.803102    18.995899    -2.292063    -4.662573    -18.685627    40.275066    -20.542210    7.202414    -30.927418    50.275578    0.000000    0.000000    0.000000    -23.322475    -15.322709    -25.342278    10.340841    30.187260    -19.040415    7.485863    6.653049    -7.762351    0.000000    0.000000    0.000000    
-12.683931    152.400162    -97.423500    1.829680    -6.199604    46.606033    -2.933948    -0.318124    -1.475831    -0.636708    1.935397    -0.479737    -1.283569    4.583591    -18.869499    15.790982    2.325148    -17.662718    3.059988    9.748375    -14.484910    -25.789732    22.698698    -45.974083    -9.772191    -15.796544    -83.995056    -7.400034    -23.298111    -13.396037    2.316380    12.335320    -6.957992    36.643841    18.053221    42.554913    -13.581068    0.703013    32.403149    -27.472673    -3.054679    30.791698    18.989943    -2.283546    -4.666428    -18.673185    40.269112    -20.539463    7.193306    -30.926176    50.259743    0.000000    0.000000    0.000000    -23.334646    -15.321485    -25.305674    10.365219    30.209703    -19.076712    7.509747    6.641167    -7.773587    0.000000    0.000000    0.000000    
-12.687227    152.401230    -97.414963    1.839654    -6.198676    46.619755    -2.931865    -0.316880    -1.490418    -0.651519    1.934926    -0.484451    -1.285415    4.574914    -18.864920    15.807530    2.353937    -17.659628    3.068339    9.705677    -14.502368    -25.869616    22.502586    -46.287193    -9.209591    -16.602690    -85.015022    -7.558678    -23.728334    -13.237648    2.324985    12.341162    -6.947986    36.638016    18.076738    42.551647    -13.597469    0.671339    32.408192    -27.455381    -3.071394    30.774950    18.984993    -2.272199    -4.674016    -18.662340    40.249058    -20.547131    7.171431    -30.941969    50.256191    0.000000    0.000000    0.000000    -23.349243    -15.314578    -25.282917    10.394877    30.217201    -19.106972    7.495590    6.641630    -7.788960    0.000000    0.000000    0.000000    
-12.689400    152.402786    -97.402649    1.852794    -6.196656    46.635757    -2.938377    -0.308943    -1.502824    -0.657766    1.926566    -0.488555    -1.291019    4.586992    -18.866983    15.832273    2.357040    -17.658871    3.070997    9.667648    -14.524421    -25.924913    22.335226    -46.638046    -8.609560    -17.428324    -85.933556    -7.844438    -24.104031    -13.117814    2.330003    12.344437    -6.950901    36.649673    18.087965    42.532421    -13.396475    0.241328    32.768280    -27.216297    -3.181709    29.767382    18.976530    -2.261283    -4.686440    -18.653072    40.235058    -20.544006    7.155855    -30.942621    50.241879    0.000000    0.000000    0.000000    -23.365709    -15.309454    -25.263880    10.410378    30.243065    -19.107079    7.512765    6.626515    -7.807630    0.000000    0.000000    0.000000    
-12.697559    152.407120    -97.395630    1.855440    -6.193688    46.642086    -2.942420    -0.290955    -1.514972    -0.651377    1.890305    -0.493040    -1.310532    4.586297    -18.860258    15.851585    2.391245    -17.652124    3.062079    9.634045    -14.529971    -25.999771    22.099579    -46.953743    -8.217243    -18.083105    -86.904060    -7.936241    -24.506166    -13.094020    2.330516    12.348663    -6.938604    36.667213    18.078049    42.507778    -13.377169    0.102224    32.732357    -26.772383    -3.357219    30.359343    18.976830    -2.256960    -4.669048    -18.631838    40.221111    -20.568569    7.156536    -30.921759    50.234818    0.000000    0.000000    0.000000    -23.374317    -15.317210    -25.269531    10.418114    30.263338    -19.118828    7.497248    6.639755    -7.798578    0.000000    0.000000    0.000000    
-12.701193    152.411133    -97.384689    1.864036    -6.197038    46.651344    -2.945032    -0.277052    -1.526084    -0.651715    1.876179    -0.497004    -1.305986    4.582464    -18.856466    15.852252    2.403192    -17.650167    3.061651    9.598662    -14.547407    -26.073065    21.883072    -47.256477    -7.809424    -18.803627    -87.876213    -8.170044    -24.928904    -13.160488    2.340857    12.361274    -6.941126    36.654179    18.076738    42.527889    -13.353535    0.098031    32.802040    -26.932171    -3.250205    29.755770    18.979792    -2.246203    -4.682168    -18.634653    40.208820    -20.586035    7.158901    -30.916994    50.249256    0.000000    0.000000    0.000000    -23.380535    -15.314491    -25.259287    10.422268    30.287710    -19.124981    7.509698    6.633829    -7.798185    0.000000    0.000000    0.000000    
-12.711143    152.415390    -97.378502    1.864832    -6.192208    46.656021    -2.945183    -0.259737    -1.530959    -0.657513    1.839590    -0.498819    -1.300603    4.572670    -18.855350    15.843748    2.433227    -17.654627    3.064443    9.557903    -14.576795    -26.170992    21.638247    -47.559341    -7.587086    -19.410929    -88.888000    -8.004639    -25.456690    -13.068441    2.350063    12.373155    -6.945273    36.647251    18.100262    42.533485    -13.373273    0.087890    32.794121    -26.930567    -3.270188    29.814922    18.979055    -2.252267    -4.667014    -18.617807    40.210987    -20.596771    7.122193    -30.923231    50.233337    0.000000    0.000000    0.000000    -23.385897    -15.325836    -25.252783    10.428518    30.301601    -19.132021    7.507764    6.644510    -7.805818    0.000000    0.000000    0.000000    
-12.716543    152.420074    -97.366676    1.863845    -6.196299    46.663284    -2.933369    -0.244654    -1.548748    -0.668373    1.811277    -0.504929    -1.301748    4.581728    -18.850513    15.845379    2.436044    -17.649706    3.069913    9.529239    -14.588956    -26.267969    21.369303    -47.878983    -7.524882    -20.018587    -89.921768    -8.009188    -26.119955    -12.814106    2.351747    12.376184    -6.927654    36.661488    18.094400    42.524918    -13.347710    0.094380    32.812191    -26.938004    -3.259406    29.769180    18.988440    -2.248444    -4.670516    -18.615137    40.201591    -20.580881    7.102674    -30.922817    50.205574    0.000000    0.000000    0.000000    -23.385204    -15.336240    -25.235575    10.432537    30.330362    -19.170778    7.523813    6.659413    -7.793952    0.000000    0.000000    0.000000    
-12.722963    152.423126    -97.360390    1.867377    -6.195395    46.663113    -2.927459    -0.226763    -1.558154    -0.684056    1.785277    -0.508140    -1.293412    4.576443    -18.842382    15.848690    2.443550    -17.642647    3.089241    9.477970    -14.605042    -26.342060    21.184034    -48.184052    -7.494483    -20.675087    -90.997055    -7.997753    -26.864676    -12.553943    2.362082    12.393925    -6.924975    36.650749    18.105902    42.548912    -13.358199    0.075609    32.808064    -26.931017    -3.274224    29.771776    18.989454    -2.242754    -4.671447    -18.614805    40.192471    -20.596687    7.111350    -30.910349    50.219685    0.000000    0.000000    0.000000    -23.390762    -15.342962    -25.236692    10.436581    30.349422    -19.142473    7.536278    6.661542    -7.827044    0.000000    0.000000    0.000000    
